# xmcd
#
# Track frame offsets:
#  150
#  11737
#  24273
#  36237
#  49887
#  65806
#  78132
#  92232
#  109784
#  123520
#  140968
#  154869
#  171091
#
# Disc length: 2433 seconds
#
# Revision: 0
# Processed by: cddbd v1.5.2PL0 Copyright (c) Steve Scherf et al.
# Submitted via: AltoMP3_Maker 3.0
#
DISCID=b1097f0d
DTITLE=Shoot Low Sheriff - Mockingbird Sessions
DYEAR=1900
DGENRE=
TTITLE0=Please Don't Talk about Me When I'm Gone
TTITLE1=Big Texas
TTITLE2=Rosebud
TTITLE3=Take Me Back to Tulsa
TTITLE4=Sixteen Tons
TTITLE5=Sweet
TTITLE6=Would It Matter At All
TTITLE7=Crawling Back to You
TTITLE8=The Western Life
TTITLE9=St. James Infirmary
TTITLE10=After You've Gone
TTITLE11=Big Man
TTITLE12=Roly Poly
EXTD=
EXTT0=
EXTT1=
EXTT2=
EXTT3=
EXTT4=
EXTT5=
EXTT6=
EXTT7=
EXTT8=
EXTT9=
EXTT10=
EXTT11=
EXTT12=
PLAYORDER=
